# 3ds Max Wavefront OBJ Exporter v0.97b - (c)2007 guruware
# Fichier créé: 29.03.2020 19:31:19

#
# object donut
#

v  -34.9966 1.1783 -24.9616
v  -33.6259 1.1783 -17.1882
v  -33.6259 0.0000 -17.1882
v  -34.9966 0.0000 -24.9616
v  -38.9433 1.1783 -31.7975
v  -38.9433 0.0000 -31.7975
v  -44.9899 0.0000 -36.8712
v  -44.9899 1.1783 -36.8712
v  -52.4072 1.1783 -39.5709
v  -52.4072 0.0000 -39.5709
v  -60.3006 0.0000 -39.5709
v  -60.3006 1.1783 -39.5709
v  -67.7179 0.0000 -36.8712
v  -67.7179 1.1783 -36.8712
v  -73.7646 1.1783 -31.7975
v  -73.7646 0.0000 -31.7975
v  -77.7112 1.1783 -24.9616
v  -77.7112 0.0000 -24.9616
v  -79.0819 0.0000 -17.1882
v  -79.0819 1.1783 -17.1882
v  -77.7112 0.0000 -9.4148
v  -77.7112 1.1783 -9.4148
v  -73.7646 1.1783 -2.5790
v  -73.7646 0.0000 -2.5790
v  -67.7179 1.1783 2.4948
v  -67.7179 0.0000 2.4948
v  -60.3006 1.1783 5.1945
v  -60.3006 0.0000 5.1945
v  -52.4072 1.1783 5.1945
v  -52.4072 0.0000 5.1945
v  -44.9899 1.1783 2.4948
v  -44.9899 0.0000 2.4948
v  -38.9433 0.0000 -2.5789
v  -38.9433 1.1783 -2.5789
v  -34.9966 1.1783 -9.4148
v  -34.9966 0.0000 -9.4148
v  -48.2741 0.0000 -31.1828
v  -53.5478 0.0000 -33.1023
v  -53.5478 1.1783 -33.1023
v  -48.2741 1.1783 -31.1828
v  -40.1943 0.0000 -17.1882
v  -40.1943 1.1783 -17.1882
v  -41.1688 1.1783 -22.7151
v  -41.1688 0.0000 -22.7151
v  -43.9749 1.1783 -27.5754
v  -43.9749 0.0000 -27.5754
v  -59.1600 1.1783 -33.1023
v  -59.1600 0.0000 -33.1023
v  -64.4337 1.1783 -31.1828
v  -64.4337 0.0000 -31.1828
v  -68.7329 1.1783 -27.5754
v  -68.7329 0.0000 -27.5754
v  -71.5390 1.1783 -22.7151
v  -71.5390 0.0000 -22.7151
v  -72.5135 1.1783 -17.1882
v  -72.5135 0.0000 -17.1882
v  -71.5390 1.1783 -11.6613
v  -71.5390 0.0000 -11.6613
v  -68.7329 1.1783 -6.8010
v  -68.7329 0.0000 -6.8010
v  -64.4337 1.1783 -3.1936
v  -64.4337 0.0000 -3.1936
v  -59.1600 1.1783 -1.2741
v  -59.1600 0.0000 -1.2741
v  -53.5478 1.1783 -1.2741
v  -53.5478 0.0000 -1.2741
v  -48.2741 1.1783 -3.1936
v  -48.2741 0.0000 -3.1936
v  -43.9749 1.1783 -6.8010
v  -43.9749 0.0000 -6.8010
v  -41.1688 1.1783 -11.6613
v  -41.1688 0.0000 -11.6613
# 72 vertices

vn 0.6976 0.6700 -0.2539
vn 0.7423 0.6700 0.0000
vn 0.7423 -0.6700 0.0000
vn 0.6976 -0.6700 -0.2539
vn 0.5687 0.6700 -0.4772
vn 0.5687 -0.6700 -0.4772
vn 0.3712 -0.6700 -0.6429
vn 0.3712 0.6700 -0.6429
vn 0.1289 0.6700 -0.7311
vn 0.1289 -0.6700 -0.7311
vn -0.1289 -0.6700 -0.7311
vn -0.1289 0.6700 -0.7311
vn -0.3711 -0.6701 -0.6429
vn -0.3711 0.6701 -0.6429
vn -0.5686 0.6701 -0.4771
vn -0.5686 -0.6701 -0.4771
vn -0.6976 0.6700 -0.2539
vn -0.6976 -0.6700 -0.2539
vn -0.7423 -0.6700 -0.0000
vn -0.7423 0.6700 -0.0000
vn -0.6976 -0.6700 0.2539
vn -0.6976 0.6700 0.2539
vn -0.5687 0.6700 0.4772
vn -0.5687 -0.6700 0.4772
vn -0.3712 0.6700 0.6429
vn -0.3712 -0.6700 0.6429
vn -0.1289 0.6700 0.7311
vn -0.1289 -0.6700 0.7311
vn 0.1289 0.6700 0.7311
vn 0.1289 -0.6700 0.7311
vn 0.3712 0.6700 0.6429
vn 0.3712 -0.6700 0.6429
vn 0.5687 -0.6700 0.4772
vn 0.5687 0.6700 0.4772
vn 0.6976 0.6700 0.2539
vn 0.6976 -0.6700 0.2539
vn -0.3316 -0.7484 0.5744
vn -0.1152 -0.7484 0.6532
vn -0.1152 0.7484 0.6532
vn -0.3316 0.7484 0.5744
vn -0.6633 -0.7484 -0.0000
vn -0.6633 0.7484 -0.0000
vn -0.6233 0.7484 0.2269
vn -0.6233 -0.7484 0.2269
vn -0.5081 0.7484 0.4264
vn -0.5081 -0.7484 0.4264
vn 0.1152 0.7484 0.6532
vn 0.1152 -0.7484 0.6532
vn 0.3316 0.7484 0.5744
vn 0.3316 -0.7484 0.5744
vn 0.5081 0.7484 0.4264
vn 0.5081 -0.7484 0.4264
vn 0.6232 0.7484 0.2269
vn 0.6232 -0.7484 0.2269
vn 0.6633 0.7484 -0.0000
vn 0.6633 -0.7484 -0.0000
vn 0.6233 0.7484 -0.2268
vn 0.6233 -0.7484 -0.2268
vn 0.5081 0.7484 -0.4263
vn 0.5081 -0.7484 -0.4263
vn 0.3316 0.7484 -0.5744
vn 0.3316 -0.7484 -0.5744
vn 0.1152 0.7484 -0.6532
vn 0.1152 -0.7484 -0.6532
vn -0.1152 0.7484 -0.6532
vn -0.1152 -0.7484 -0.6532
vn -0.3316 0.7484 -0.5744
vn -0.3316 -0.7484 -0.5744
vn -0.5081 0.7484 -0.4264
vn -0.5081 -0.7484 -0.4264
vn -0.6233 0.7484 -0.2269
vn -0.6233 -0.7484 -0.2269
# 72 vertex normals

vt 0.8056 1.0000 1.0000
vt 0.7500 1.0000 1.0000
vt 0.7500 0.0000 1.0000
vt 0.8056 0.0000 1.0000
vt 0.8611 1.0000 1.0000
vt 0.8611 0.0000 1.0000
vt 0.9167 0.0000 1.0000
vt 0.9167 1.0000 1.0000
vt 0.9722 1.0000 1.0000
vt 0.9722 0.0000 1.0000
vt -0.0278 1.0000 1.0000
vt -0.0278 0.0000 1.0000
vt 0.0278 0.0000 1.0000
vt 0.0278 1.0000 1.0000
vt 0.0833 0.0000 1.0000
vt 0.0833 1.0000 1.0000
vt 0.1389 1.0000 1.0000
vt 0.1389 0.0000 1.0000
vt 0.1944 1.0000 1.0000
vt 0.1944 0.0000 1.0000
vt 0.2500 0.0000 1.0000
vt 0.2500 1.0000 1.0000
vt 0.3056 0.0000 1.0000
vt 0.3056 1.0000 1.0000
vt 0.3611 1.0000 1.0000
vt 0.3611 0.0000 1.0000
vt 0.4167 1.0000 1.0000
vt 0.4167 0.0000 1.0000
vt 0.4722 1.0000 1.0000
vt 0.4722 0.0000 1.0000
vt 0.5278 1.0000 1.0000
vt 0.5278 0.0000 1.0000
vt 0.5833 1.0000 1.0000
vt 0.5833 0.0000 1.0000
vt 0.6389 0.0000 1.0000
vt 0.6389 1.0000 1.0000
vt 0.6944 1.0000 1.0000
vt 0.6944 0.0000 1.0000
vt 0.8731 0.0000 0.8794
vt 0.7653 0.0000 0.6252
vt 0.7418 0.0000 0.4641
vt 0.8401 0.0000 0.6527
vt 0.7275 1.0000 0.3473
vt 0.6600 1.0000 -0.0000
vt 0.6137 1.0000 -0.0000
vt 0.6617 1.0000 0.2469
vt 0.7500 0.0890 1.0000
vt 0.8056 0.0890 1.0000
vt 0.8611 0.0890 1.0000
vt 0.9167 0.0890 1.0000
vt 0.9722 0.0890 1.0000
vt -0.0278 0.0890 1.0000
vt 0.0278 0.0890 1.0000
vt 0.0833 0.0890 1.0000
vt 0.1389 0.0890 1.0000
vt 0.1944 0.0890 1.0000
vt 0.2500 0.0890 1.0000
vt 0.3056 0.0890 1.0000
vt 0.3611 0.0890 1.0000
vt 0.4167 0.0890 1.0000
vt 0.4722 0.0890 1.0000
vt 0.5278 0.0890 1.0000
vt 0.5833 0.0890 1.0000
vt 0.6389 0.0890 1.0000
vt 0.6944 0.0890 1.0000
vt 0.2827 0.0000 -0.7110
vt 0.2432 0.0000 -0.7110
vt 0.1389 0.0000 -1.0000
vt 0.1944 0.0000 -1.0000
vt 0.2347 0.0000 -0.6252
vt 0.1269 0.0000 -0.8794
vt 0.2582 0.0000 -0.4641
vt 0.1599 0.0000 -0.6527
vt 0.2869 0.0000 -0.8794
vt 0.3485 0.0000 -0.6252
vt 0.3108 0.0000 -0.2469
vt 0.2339 0.0000 -0.3473
vt 0.3863 0.0000 -0.0000
vt 0.3400 0.0000 -0.0000
vt 0.4754 0.0000 0.2469
vt 0.4654 0.0000 0.3473
vt 0.5676 0.0000 0.4641
vt 0.5950 0.0000 0.6527
vt 0.6515 0.0000 0.6252
vt 0.7131 0.0000 0.8794
vt 0.4050 0.0000 -0.6527
vt 0.4324 0.0000 -0.4641
vt 0.5346 0.0000 -0.3473
vt 0.5246 0.0000 -0.2469
vt 0.6600 0.0000 -0.0000
vt 0.6137 0.0000 0.0000
vt 0.7661 0.0000 0.3473
vt 0.6892 0.0000 0.2469
vt 0.7173 0.0000 0.7110
vt 0.7568 0.0000 0.7110
vt 0.2324 1.0000 -0.6527
vt 0.3097 1.0000 -0.4641
vt 0.3042 1.0000 -0.6252
vt 0.2246 1.0000 -0.8794
vt 0.2725 1.0000 -0.3473
vt 0.3383 1.0000 -0.2469
vt 0.3400 1.0000 0.0000
vt 0.3863 1.0000 0.0000
vt 0.3222 1.0000 -0.7110
vt 0.2500 1.0000 -1.0000
vt 0.4269 1.0000 0.3473
vt 0.4480 1.0000 0.2469
vt 0.5225 1.0000 0.6527
vt 0.5160 1.0000 0.4641
vt 0.6154 1.0000 0.8794
vt 0.5821 1.0000 0.6252
vt 0.3617 1.0000 -0.7110
vt 0.3056 1.0000 -1.0000
vt 0.4179 1.0000 -0.6252
vt 0.3846 1.0000 -0.8794
vt 0.4840 1.0000 -0.4641
vt 0.4775 1.0000 -0.6527
vt 0.5520 1.0000 -0.2469
vt 0.5731 1.0000 -0.3473
vt 0.6382 1.0000 0.7110
vt 0.6778 1.0000 0.7110
vt 0.7754 1.0000 0.8794
vt 0.6958 1.0000 0.6252
vt 0.7676 1.0000 0.6527
vt 0.6903 1.0000 0.4641
# 125 texture coords

o donut
g donut
s 8
f 1/1/1 2/2/2 3/3/3 4/4/4 
f 5/5/5 1/1/1 4/4/4 6/6/6 
f 5/5/5 6/6/6 7/7/7 8/8/8 
f 9/9/9 8/8/8 7/7/7 10/10/10 
f 9/11/9 10/12/10 11/13/11 12/14/12 
f 12/14/12 11/13/11 13/15/13 14/16/14 
f 15/17/15 14/16/14 13/15/13 16/18/16 
f 17/19/17 15/17/15 16/18/16 18/20/18 
f 17/19/17 18/20/18 19/21/19 20/22/20 
f 20/22/20 19/21/19 21/23/21 22/24/22 
f 23/25/23 22/24/22 21/23/21 24/26/24 
f 25/27/25 23/25/23 24/26/24 26/28/26 
f 27/29/27 25/27/25 26/28/26 28/30/28 
f 29/31/29 27/29/27 28/30/28 30/32/30 
f 31/33/31 29/31/29 30/32/30 32/34/32 
f 31/33/31 32/34/32 33/35/33 34/36/34 
f 35/37/35 34/36/34 33/35/33 36/38/36 
f 35/37/35 36/38/36 3/3/3 2/2/2 
s 1
f 7/39/7 37/40/37 38/41/38 10/42/10 
f 8/43/8 9/44/9 39/45/39 40/46/40 
s 2
f 41/3/41 42/47/42 43/48/43 44/4/44 
f 43/48/43 45/49/45 46/6/46 44/4/44 
f 46/6/46 45/49/45 40/50/40 37/7/37 
f 40/50/40 39/51/39 38/10/38 37/7/37 
f 39/52/39 47/53/47 48/13/48 38/12/38 
f 48/13/48 47/53/47 49/54/49 50/15/50 
f 50/15/50 49/54/49 51/55/51 52/18/52 
f 51/55/51 53/56/53 54/20/54 52/18/52 
f 54/20/54 53/56/53 55/57/55 56/21/56 
f 55/57/55 57/58/57 58/23/58 56/21/56 
f 58/23/58 57/58/57 59/59/59 60/26/60 
f 60/26/60 59/59/59 61/60/61 62/28/62 
f 62/28/62 61/60/61 63/61/63 64/30/64 
f 63/61/63 65/62/65 66/32/66 64/30/64 
f 65/62/65 67/63/67 68/34/68 66/32/66 
f 68/34/68 67/63/67 69/64/69 70/35/70 
f 70/35/70 69/64/69 71/65/71 72/38/72 
f 72/38/72 71/65/71 42/47/42 41/3/41 
s 1
f 58/66/58 60/67/60 24/68/24 21/69/21 
f 60/67/60 62/70/62 26/71/26 24/68/24 
f 62/70/62 64/72/64 28/73/28 26/71/26 
f 19/74/19 56/75/56 58/66/58 21/69/21 
f 64/72/64 66/76/66 30/77/30 28/73/28 
f 66/76/66 68/78/68 32/79/32 30/77/30 
f 68/78/68 70/80/70 33/81/33 32/79/32 
f 70/80/70 72/82/72 36/83/36 33/81/33 
f 72/82/72 41/84/41 3/85/3 36/83/36 
f 18/86/18 54/87/54 56/75/56 19/74/19 
f 16/88/16 52/89/52 54/87/54 18/86/18 
f 13/90/13 50/91/50 52/89/52 16/88/16 
f 11/92/11 48/93/48 50/91/50 13/90/13 
f 10/42/10 38/41/38 48/93/48 11/92/11 
f 41/84/41 44/94/44 4/4/4 3/85/3 
f 44/94/44 46/95/46 6/6/6 4/4/4 
f 46/95/46 37/40/37 7/39/7 6/6/6 
f 23/96/23 59/97/59 57/98/57 22/99/22 
f 25/100/25 61/101/61 59/97/59 23/96/23 
f 27/102/27 63/103/63 61/101/61 25/100/25 
f 57/98/57 55/104/55 20/105/20 22/99/22 
f 29/106/29 65/107/65 63/103/63 27/102/27 
f 31/108/31 67/109/67 65/107/65 29/106/29 
f 34/110/34 69/111/69 67/109/67 31/108/31 
f 55/104/55 53/112/53 17/113/17 20/105/20 
f 53/112/53 51/114/51 15/115/15 17/113/17 
f 51/114/51 49/116/49 14/117/14 15/115/15 
f 49/116/49 47/118/47 12/119/12 14/117/14 
f 47/118/47 39/45/39 9/44/9 12/119/12 
f 35/37/35 71/120/71 69/111/69 34/110/34 
f 2/2/2 42/121/42 71/120/71 35/37/35 
f 1/122/1 43/123/43 42/121/42 2/2/2 
f 5/124/5 45/125/45 43/123/43 1/122/1 
f 8/43/8 40/46/40 45/125/45 5/124/5 
# 72 polygons

